# xmcd
# 
# Track frame offsets:
#     150
#     7287
#     20630
#     40527
#     61432
#     78892
#     98417
#     122957
#     143545
#     168202
#     192297
#     209377
#     224625
#     244277
# 
# Disc length: 3549
# 
# Revision: 4
# Processed by: cddbd v1.5.2PL0 Copyright (c) Steve Scherf et al.
# Submitted via: fre:ac v1.0.17
# 
DISCID=c10ddb0e
DTITLE=黒夢 - feminism
DYEAR=1995
DGENRE=Rock
TTITLE0=心臓
TTITLE1=解凍実験
TTITLE2=feminism
TTITLE3=眠れない日に見る時計
TTITLE4=Unlearned Man
TTITLE5=Love Song
TTITLE6=白と黒
TTITLE7=優しい悲劇 [album mix]
TTITLE8=情熱の影 -Silhouette-
TTITLE9=くちづけ
TTITLE10=Miss MOONLIGHT [album mix]
TTITLE11=カマキリ
TTITLE12=Happy Birthday
TTITLE13=至上のゆりかご
EXTD=
EXTT0=
EXTT1=
EXTT2=
EXTT3=
EXTT4=
EXTT5=
EXTT6=
EXTT7=
EXTT8=
EXTT9=
EXTT10=
EXTT11=
EXTT12=
EXTT13=
PLAYORDER=
